PathFileType	4	(X/Y/Z)	C:\Users\Basilio\Documents\Thesis Gigler\squatting_fais\c3dfiles\019\SLS_back_pre1\markers_experimental.trc
DataRate	CameraRate	NumFrames	NumMarkers	Units	OrigDataRate	OrigDataStartFrame	OrigNumFrames
200.000000	200.000000	4	59	mm	200.000000	0	1442
Frame#	Time	LBHD			RBHD			C7			T10			CLAV			LSHO			LUUPA			LMUPA			LDUPA			LLEP			LMEP			LRAD			LUL			LRFIN			RSHO			RUPA1			RMUPA			RDUPA			RLEP			RMEP			RRAD			RUL			RUFIN			LASI			RASI			USACR			LSACR			RSACR			LTHI1			LTHI2			LTHI3			LTHI4			LLFC			LTIB1			LTIB2			LTIB3			LTIB4			LLMAL			LMMAL			LHEE			LMT1			LMT2			LMT5			RTHI2			RTHI4			RLFC			RTIB1			RTIB2			RTIB3			RTIB4			RLMAL			RMMAL			RHEE			RMT1			RMT2			RMT5			FHD			RTHI			RTHI3			
		X1	Y1	Z1	X2	Y2	Z2	X3	Y3	Z3	X4	Y4	Z4	X5	Y5	Z5	X6	Y6	Z6	X7	Y7	Z7	X8	Y8	Z8	X9	Y9	Z9	X10	Y10	Z10	X11	Y11	Z11	X12	Y12	Z12	X13	Y13	Z13	X14	Y14	Z14	X15	Y15	Z15	X16	Y16	Z16	X17	Y17	Z17	X18	Y18	Z18	X19	Y19	Z19	X20	Y20	Z20	X21	Y21	Z21	X22	Y22	Z22	X23	Y23	Z23	X24	Y24	Z24	X25	Y25	Z25	X26	Y26	Z26	X27	Y27	Z27	X28	Y28	Z28	X29	Y29	Z29	X30	Y30	Z30	X31	Y31	Z31	X32	Y32	Z32	X33	Y33	Z33	X34	Y34	Z34	X35	Y35	Z35	X36	Y36	Z36	X37	Y37	Z37	X38	Y38	Z38	X39	Y39	Z39	X40	Y40	Z40	X41	Y41	Z41	X42	Y42	Z42	X43	Y43	Z43	X44	Y44	Z44	X45	Y45	Z45	X46	Y46	Z46	X47	Y47	Z47	X48	Y48	Z48	X49	Y49	Z49	X50	Y50	Z50	X51	Y51	Z51	X52	Y52	Z52	X53	Y53	Z53	X54	Y54	Z54	X55	Y55	Z55	X56	Y56	Z56	X57	Y57	Z57	X58	Y58	Z58	X59	Y59	Z59	

1	0	-392.0201416015626	1681.091796875	-898.0437622070315	-386.7822875976564	1672.188720703125	-758.2758178710939	-408.0448608398439	1507.408325195313	-824.742370605469	-439.3669433593751	1213.184936523438	-818.084899902344	-276.9499206542969	1454.458862304688	-836.0889282226565	-347.6804809570313	1489.138916015625	-991.0288696289065	-345.0190429687501	1314.2998046875	-1047.0107421875	-313.2648315429688	1288.106201171875	-1019.882690429688	-339.4750061035157	1247.26220703125	-1055.844848632813	-374.4603576660157	1168.713500976563	-1061.88134765625	-400.0659790039064	1154.966430664063	-1007.191467285156	-255.7309875488282	942.4569091796877	-1049.6748046875	-317.0985717773438	934.499206542969	-1075.526123046875	-232.6049499511719	876.0289306640627	-1075.055908203125	-321.5828552246094	1481.724487304688	-682.6412353515626	-360.7706909179688	1299.377319335938	-585.9397583007814	-322.4841918945313	1278.563842773438	-603.0621948242189	-352.5618286132813	1230.62353515625	-580.1924438476564	-342.4920349121094	1157.442749023438	-579.7476806640626	-387.1892395019532	1149.384033203125	-617.7930297851564	-220.6096191406251	942.1363525390627	-631.3518676757814	-257.6394042968751	925.8309326171877	-577.2670898437501	-186.8799743652344	870.1986083984377	-611.4542846679689	-278.1831665039063	1014.125732421875	-944.6861572265627	-256.8413391113282	1011.60791015625	-735.6958007812501	-431.257537841797	1078.58056640625	-821.1834106445315	-438.3271789550782	1045.711669921875	-848.2563476562502	-431.5578002929689	1047.175415039063	-791.2817993164065	-343.4220581054688	756.1473388671876	-1021.52099609375	-306.1356201171876	679.3620605468751	-1022.908081054688	-260.4404296875001	685.2882080078126	-1009.20166015625	-331.6495056152344	624.8861083984376	-1010.983276367188	-333.9115295410157	528.2208251953126	-1000.202026367188	-292.6887207031251	385.9183349609376	-974.7318115234377	-349.8218383789063	348.0531311035157	-1030.04931640625	-312.9217834472657	341.6490478515626	-1007.207702636719	-319.3371887207032	260.0371093750001	-976.8171997070315	-393.3345336914064	137.5912628173828	-1004.494995117188	-376.5912170410157	139.5819091796875	-928.1206665039065	-459.5582885742189	107.4178771972657	-956.1990356445315	-251.3264923095704	57.2584800720215	-943.335632324219	-252.8691406250001	58.90838623046876	-984.6135253906252	-300.3804626464844	47.03743743896485	-1037.900024414063	-258.9136657714844	757.4294433593751	-667.7979125976564	-287.5549621582032	682.2023315429689	-662.1500854492189	-336.7705078125001	520.5421752929689	-685.4656982421876	-305.0179138183594	339.0278930664063	-744.7296142578126	-352.8574523925782	259.6028442382813	-681.9046020507814	-322.9962158203126	257.6618347167969	-718.6182250976564	-335.8083190917969	215.2364654541016	-757.7316894531251	-392.5617065429689	130.7206573486328	-708.5039672851564	-380.1645812988282	134.8204498291016	-783.794128417969	-459.0871582031251	106.587875366211	-753.5147094726564	-260.7302856445313	56.55924606323244	-785.938659667969	-251.5805206298829	55.40362548828126	-743.3533935546876	-292.9518432617188	50.62807846069337	-684.5895996093751	nan	nan	nan	nan	nan	nan	nan	nan	nan	
2	0.005	-391.9605102539064	1681.041259765625	-898.0513305664065	-386.7380371093751	1672.183227539063	-758.2974853515626	-408.0806274414064	1507.378784179688	-824.7524414062502	-439.3567199707032	1213.19580078125	-818.090759277344	-276.8557434082032	1454.463989257813	-836.1004028320315	-347.7310180664063	1489.13916015625	-991.0432739257815	-345.0379028320313	1314.26025390625	-1046.987670898438	-313.3183593750001	1288.08837890625	-1019.915954589844	-339.4846191406251	1247.249145507813	-1055.802368164063	-374.5977478027344	1168.676025390625	-1061.838012695313	-400.0779418945314	1154.98779296875	-1007.182861328125	-255.7993469238282	942.406677246094	-1049.649658203125	-317.1253662109376	934.4973144531252	-1075.420166015625	-232.6588439941407	875.9749145507815	-1075.045166015625	-321.5199584960938	1481.727416992188	-682.6609497070314	-360.7079467773438	1299.362670898438	-585.9669799804689	-321.1986999511719	1276.6767578125	-602.0005493164064	-352.4396667480469	1230.701416015625	-580.1978759765626	-342.4753417968751	1157.442016601563	-579.7703247070314	-387.1819152832032	1149.3798828125	-617.8134765625001	-220.6107025146485	942.1148071289065	-631.3795166015626	-257.3882141113282	926.1536865234377	-577.3601684570314	-186.8381805419922	870.204040527344	-611.5365600585939	-278.1901855468751	1014.142578125	-944.690856933594	-256.9396972656251	1011.6259765625	-735.7401123046876	-431.2463378906251	1078.674560546875	-821.1701660156252	-438.1186523437501	1045.619506835938	-848.281677246094	-431.6739196777345	1047.175170898438	-791.2781372070315	-343.4139709472657	756.1625366210939	-1021.517028808594	-306.1811828613282	679.4184570312501	-1022.874694824219	-260.4410400390626	685.2606201171876	-1009.214233398438	-331.7476806640626	624.9116210937501	-1010.977233886719	-334.0108032226563	528.2317504882814	-1000.208374023438	-292.6580505371094	385.9444274902345	-974.7243652343752	-349.7611389160157	348.0650634765626	-1030.038452148438	-312.9217834472657	341.6490478515626	-1007.207702636719	-319.3555603027344	260.0171203613282	-976.8226318359377	-393.3420715332032	137.6001739501953	-1004.462768554688	-376.6020202636719	139.5829467773438	-928.126892089844	-459.615203857422	107.4906387329102	-956.1553955078127	-251.4361724853516	57.30187606811525	-943.3511962890627	-252.9388580322266	58.8974952697754	-984.7070922851565	-300.3726806640626	47.0322608947754	-1037.880126953125	-258.9211730957032	757.5316772460939	-667.8781738281251	-287.6186218261719	682.2086791992189	-662.1486816406251	-336.8521423339844	520.4902954101564	-685.4967041015626	-305.0408630371094	339.0713195800782	-744.7499389648439	-352.8334960937501	259.5833435058594	-681.9409179687501	-323.0307006835938	257.6489257812501	-718.6412963867189	-335.8750000000001	215.2663879394532	-757.7748413085939	-392.5968322753907	130.711654663086	-708.4738159179689	-380.1645812988282	134.8204498291016	-783.794128417969	-459.1921997070314	106.5038452148438	-753.4901733398439	-260.7333068847657	56.5514602661133	-785.941345214844	-251.6332397460938	55.42982101440431	-743.3380737304689	-292.9936523437501	50.62535476684572	-684.6060791015626	nan	nan	nan	nan	nan	nan	nan	nan	nan	
3	0.01	-391.834930419922	1681.0439453125	-898.045837402344	-386.6386718750001	1672.138793945313	-758.2885131835939	-407.9026184082032	1507.420288085938	-824.7447509765627	-439.3492431640626	1213.217651367188	-818.0548095703127	-276.8554077148438	1454.414672851563	-836.1023559570315	-347.6788024902344	1489.119873046875	-991.0296630859377	-345.0486450195313	1314.237426757813	-1046.948852539063	-313.3908996582032	1288.0771484375	-1019.913208007813	-339.4819335937501	1247.228515625	-1055.803100585938	-374.5514526367188	1168.652954101563	-1061.84326171875	-400.1560058593751	1154.987548828125	-1007.141235351563	-255.8790435791016	942.425231933594	-1049.647338867188	-317.2581481933594	934.517517089844	-1075.437255859375	-232.7807159423829	875.9771728515627	-1075.021240234375	-321.4886169433594	1481.7021484375	-682.6505737304689	-360.6854858398438	1299.366943359375	-585.9549560546876	-321.2057189941407	1276.697387695313	-602.1141357421876	-352.3897399902344	1230.658569335938	-580.1876220703126	-342.4895629882813	1157.392700195313	-579.8129272460939	-387.2213745117189	1149.374877929688	-617.8674926757814	-220.6603698730469	942.1141357421877	-631.4295654296876	-257.5346984863282	926.0584106445315	-577.4125976562501	-186.9130096435547	870.1336059570315	-611.6152954101564	-278.2626647949219	1014.158264160156	-944.7017822265627	-256.9396972656251	1011.6259765625	-735.7401123046876	-431.2565002441407	1078.642578125	-821.1793212890627	-438.0590209960939	1045.601928710938	-848.299743652344	-431.6385192871095	1047.219482421875	-791.2951660156252	-343.4997558593751	756.1584472656251	-1021.524230957031	-306.1632690429688	679.3685302734376	-1022.918884277344	-260.4568176269532	685.3074340820314	-1009.181274414063	-331.6867675781251	624.9313354492189	-1010.963073730469	-333.9727172851563	528.2456054687501	-1000.206298828125	-292.6681518554688	385.9154663085939	-974.7642822265627	-349.8185729980469	348.0552673339844	-1030.04931640625	-312.9217834472657	341.6490478515626	-1007.207702636719	-319.3553771972657	260.0169067382813	-976.8223876953127	-393.3424072265626	137.619125366211	-1004.495361328125	-376.6329956054688	139.6067352294922	-928.1160278320315	-459.5101928710939	107.436149597168	-956.1843261718752	-251.2547607421876	57.15946578979494	-943.3800048828127	-252.9114685058594	58.94811248779298	-984.6427001953127	-300.3164978027344	46.99668884277344	-1037.871459960938	-258.9183959960938	757.4842529296876	-667.8433227539064	-287.5764160156251	682.2247314453126	-662.1521606445314	-336.7568969726563	520.8453369140626	-685.5156860351564	-305.0736389160157	339.0331420898438	-744.7249755859376	-352.8556213378907	259.6030578613282	-681.9299926757814	-323.0518798828126	257.6029968261719	-718.6329345703126	-335.8400573730469	215.2451171875001	-757.8043212890626	-392.5551757812501	130.7349853515625	-708.5141601562501	-380.1371765136719	134.838851928711	-783.822692871094	-459.1925659179689	106.5035171508789	-753.4901123046876	-260.8080749511719	56.58602905273439	-785.9739990234377	-251.5846252441407	55.4348831176758	-743.2568969726564	-292.9936523437501	50.62535476684572	-684.6060791015626	nan	nan	nan	nan	nan	nan	nan	nan	nan	
4	0.015	-391.794403076172	1681.036987304688	-898.0532226562502	-386.582000732422	1672.188232421875	-758.2871093750001	-407.8685913085939	1507.492431640625	-824.7337036132815	-439.3345947265626	1213.248413085938	-818.0571289062502	-276.8470764160157	1454.385620117188	-836.0966796875002	-347.6159667968751	1489.13525390625	-990.973571777344	-345.0928649902344	1314.237915039063	-1046.972900390625	-313.3904113769532	1288.054077148438	-1019.905700683594	-339.5356445312501	1247.193969726563	-1055.810791015625	-374.6311035156251	1168.655639648438	-1061.768676757813	-400.2240600585939	1155.002319335938	-1007.164428710938	-255.9974060058594	942.422790527344	-1049.668823242188	-317.3493041992188	934.4902954101565	-1075.428588867188	-232.8358764648438	875.947937011719	-1074.983154296875	-321.3958129882813	1481.678466796875	-682.6566772460939	-360.6418151855469	1299.366943359375	-585.9570312500001	-322.4273376464844	1278.543212890625	-603.1453857421876	-352.3573608398438	1230.7177734375	-580.2864990234376	-342.4232177734376	1157.420166015625	-579.8823852539064	-387.2050781250001	1149.392822265625	-617.8853149414064	-220.6672515869141	942.1006469726565	-631.4829101562501	-257.4512939453126	926.059509277344	-577.4839477539064	-186.9804992675782	870.0892333984377	-611.6856689453126	-278.2766113281251	1014.118774414063	-944.7303466796877	-256.9396972656251	1011.6259765625	-735.7401123046876	-431.2554626464845	1078.663208007813	-821.1636962890627	-437.9158935546876	1045.584716796875	-848.2873535156252	-431.6693725585939	1047.212036132813	-791.277038574219	-343.5367431640626	756.1362915039064	-1021.536743164063	-306.2721862792969	679.4140625000001	-1022.930053710938	-260.4687805175782	685.3071289062501	-1009.154724121094	-331.7887573242188	624.9191284179689	-1011.004272460938	-333.9727172851563	528.2456054687501	-1000.206237792969	-292.6725463867188	385.9156799316407	-974.7276611328127	-349.8755798339844	348.0618591308594	-1030.047729492188	-313.0310058593751	341.6271362304688	-1007.2470703125	-319.3398132324219	260.0327758789063	-976.8182373046877	-393.281707763672	137.5944519042969	-1004.425720214844	-376.5971069335938	139.576171875	-928.1257934570315	-459.5687866210939	107.47802734375	-956.1508789062502	-251.5197753906251	57.40407943725587	-943.2698364257815	-252.9114685058594	58.94811248779298	-984.6427001953127	-300.3203735351563	46.99330139160157	-1037.862915039063	-258.9765930175782	757.5271606445314	-667.9488525390626	-287.6186218261719	682.2086791992189	-662.1486816406251	-336.7484741210938	520.8601074218751	-685.5236206054689	-305.0834350585938	339.0660095214844	-744.7625122070314	-352.8544311523438	259.6026000976563	-681.9359741210939	-322.9974060058594	257.6217346191407	-718.6278076171876	-335.8527526855469	215.2944488525391	-757.7944335937501	-392.515350341797	130.6784057617188	-708.4904174804689	-380.1225891113282	134.8367309570313	-783.7786254882815	-459.0196533203126	106.5706253051758	-753.4818725585939	-260.6352844238282	56.5682716369629	-785.9964599609377	-251.5213623046876	55.42492294311525	-743.3919067382814	-292.9518432617188	50.62808227539064	-684.5896606445314	nan	nan	nan	nan	nan	nan	nan	nan	nan	
